# xmcd
#
# Track frame offsets: 
#        150
#        965
#        21810
#        46105
#        66608
#        88053
#        104163
#        126048
#        144940
#        162465
#        185833
#
# Disc length: 2679 seconds
#
# Revision: 5
# Processed by: cddbd v1.5.2PL0 Copyright (c) Steve Scherf et al.
# Submitted via: ExactAudioCopy v1.1
#
DISCID=950a750b
DTITLE=Raf - Sogni ...È Tutto Quello Che C'é
DYEAR=1991
DGENRE=Pop
TTITLE0=Sogni ''prelude''
TTITLE1=Interminatamente
TTITLE2=Siamo Soli Nell'immenso Vuoto Che C'è
TTITLE3=Oggi Un Dio Non Ho
TTITLE4=Se Ti Senti Sola
TTITLE5=Anche Tu (Con Eros Ramazzotti)
TTITLE6=Amarsi O Non Amarsi
TTITLE7=Senza Respiro
TTITLE8=E' Meglio Così
TTITLE9=Malinverno
TTITLE10=Sogni
EXTD=CGD - Made in Germany - 1991
EXTT0=
EXTT1=
EXTT2=
EXTT3=
EXTT4=
EXTT5=
EXTT6=
EXTT7=
EXTT8=
EXTT9=
EXTT10=
PLAYORDER=
